<svg id="Capa_1" enable-background="new 0 0 512 512" height="512" viewBox="0 0 512 512" width="512" xmlns="http://www.w3.org/2000/svg"><g><g><path d="m357 100h140v30h-140z" fill="#07485e"/><path d="m357 30h140v30h-140z" fill="#07485e"/><path d="m357 170h140v30h-140z" fill="#07485e"/><path d="m357 240h140v30h-140z" fill="#07485e"/><path d="m367 310h130v30h-130z" fill="#07485e"/><g fill="#04303e"><path d="m427 100h70v30h-70z"/><path d="m427 30h70v30h-70z"/><path d="m427 170h70v30h-70z"/><path d="m427 240h70v30h-70z"/><path d="m427 310h70v30h-70z"/><path d="m437 450h60v30h-60z"/><path d="m434.303 380h62.697v30h-62.697z"/></g><path d="m372 325v-310c0-8.284-6.716-15-15-15s-15 6.716-15 15v310z" fill="#0b799d"/><path d="m497 0c-8.284 0-15 6.716-15 15v482c0 8.284 6.716 15 15 15s15-6.716 15-15v-482c0-8.284-6.716-15-15-15z" fill="#07485e"/></g><g><path d="m367 310h-40c-19.299 0-35 15.701-35 35v40c0 8.284 6.716 15 15 15s15-6.716 15-15v-40c0-2.757 2.243-5 5-5h40c2.757 0 5 2.243 5 5v40c0 8.284 6.716 15 15 15s15-6.716 15-15v-40c0-19.299-15.701-35-35-35z" fill="#ff9f22"/><path d="m367 310h-20v30h20c2.757 0 5 2.243 5 5v40c0 8.284 6.716 15 15 15s15-6.716 15-15v-40c0-19.299-15.701-35-35-35z" fill="#ff7037"/><path d="m417 370h-140c-19.299 0-35 15.701-35 35v72c0 19.299 15.701 35 35 35h140c19.299 0 35-15.701 35-35v-72c0-19.299-15.701-35-35-35z" fill="#46f8ff"/><path d="m417 370h-70v142h70c19.299 0 35-15.701 35-35v-72c0-19.299-15.701-35-35-35z" fill="#2fc0f0"/></g><g><g><path d="m65 275v202c0 19.33 15.67 35 35 35 19.33 0 35-15.67 35-35v-122 122c0 19.33 15.67 35 35 35 19.33 0 35-15.67 35-35v-202z" fill="#ffda44"/></g><path d="m135 275v202c0 19.33 15.67 35 35 35 19.33 0 35-15.67 35-35v-202z" fill="#ff9f22"/><path d="m0 175v112.5c0 17.949 14.551 32.5 32.5 32.5 17.949 0 32.5-14.551 32.5-32.5v-2.5h140v2.5c0 17.949 14.551 32.5 32.5 32.5 17.949 0 32.5-14.551 32.5-32.5v-112.5c0-41.421-33.579-75-75-75h-120c-41.421 0-75 33.579-75 75z" fill="#46f8ff"/><path d="m195 100h-60v185h70v2.5c0 17.949 14.551 32.5 32.5 32.5 17.949 0 32.5-14.551 32.5-32.5v-112.5c0-41.421-33.579-75-75-75z" fill="#2fc0f0"/><path d="m50 170c8.284 0 15 6.716 15 15v102.5c0 17.107-13.22 31.117-30 32.395v-134.895c0-8.284 6.716-15 15-15z" fill="#2fc0f0"/><g><path d="m135 0c-33.084 0-60 26.916-60 60s26.916 60 60 60 60-26.916 60-60-26.916-60-60-60z" fill="#ffe4c2"/></g><path d="m195 60c0-33.084-26.916-60-60-60v120c33.084 0 60-26.916 60-60z" fill="#f2d1a5"/></g><path d="m220 170c-8.284 0-15 6.716-15 15v102.5c0 17.107 13.22 31.117 30 32.395v-134.895c0-8.284-6.716-15-15-15z" fill="#0d91bd"/></g></svg>