<svg width="140" height="30" viewBox="0 0 140 30" fill="none" xmlns="http://www.w3.org/2000/svg">
<path d="M34.5898 25V9.35938H39.9502C41.7191 9.35938 43.0654 9.71387 43.9893 10.4229C44.9131 11.1318 45.375 12.1882 45.375 13.5918C45.375 14.3079 45.1816 14.9525 44.7949 15.5254C44.4082 16.0983 43.8424 16.5423 43.0977 16.8574C43.9427 17.0866 44.5944 17.5199 45.0527 18.1572C45.5182 18.7874 45.751 19.5465 45.751 20.4346C45.751 21.9027 45.2783 23.0306 44.333 23.8184C43.3949 24.6061 42.0485 25 40.2939 25H34.5898ZM37.3076 17.9424V22.8301H40.3262C41.1784 22.8301 41.8444 22.6188 42.3242 22.1963C42.804 21.7738 43.0439 21.1865 43.0439 20.4346C43.0439 18.8089 42.2132 17.9782 40.5518 17.9424H37.3076ZM37.3076 15.9443H39.9717C40.8167 15.9443 41.4756 15.7546 41.9482 15.375C42.4281 14.9883 42.668 14.444 42.668 13.7422C42.668 12.9688 42.446 12.4102 42.002 12.0664C41.5651 11.7227 40.8812 11.5508 39.9502 11.5508H37.3076V15.9443ZM47.7275 19.0811C47.7275 17.9424 47.9531 16.9183 48.4043 16.0088C48.8555 15.0921 49.4893 14.3903 50.3057 13.9033C51.1221 13.4092 52.0602 13.1621 53.1201 13.1621C54.6885 13.1621 55.9596 13.667 56.9336 14.6768C57.9147 15.6865 58.4447 17.0257 58.5234 18.6943L58.5342 19.3066C58.5342 20.4525 58.3122 21.4766 57.8682 22.3789C57.4313 23.2812 56.8011 23.9795 55.9775 24.4736C55.1611 24.9678 54.2158 25.2148 53.1416 25.2148C51.5016 25.2148 50.1875 24.6706 49.1992 23.582C48.2181 22.4863 47.7275 21.029 47.7275 19.21V19.0811ZM50.3379 19.3066C50.3379 20.5026 50.585 21.4408 51.0791 22.1211C51.5732 22.7943 52.2607 23.1309 53.1416 23.1309C54.0225 23.1309 54.7064 22.7871 55.1934 22.0996C55.6875 21.4121 55.9346 20.4059 55.9346 19.0811C55.9346 17.9066 55.6803 16.9756 55.1719 16.2881C54.6706 15.6006 53.9867 15.2568 53.1201 15.2568C52.2679 15.2568 51.5911 15.597 51.0898 16.2773C50.5885 16.9505 50.3379 17.9603 50.3379 19.3066ZM60.2529 19.0811C60.2529 17.9424 60.4785 16.9183 60.9297 16.0088C61.3809 15.0921 62.0146 14.3903 62.8311 13.9033C63.6475 13.4092 64.5856 13.1621 65.6455 13.1621C67.2139 13.1621 68.485 13.667 69.459 14.6768C70.4401 15.6865 70.9701 17.0257 71.0488 18.6943L71.0596 19.3066C71.0596 20.4525 70.8376 21.4766 70.3936 22.3789C69.9567 23.2812 69.3265 23.9795 68.5029 24.4736C67.6865 24.9678 66.7412 25.2148 65.667 25.2148C64.027 25.2148 62.7129 24.6706 61.7246 23.582C60.7435 22.4863 60.2529 21.029 60.2529 19.21V19.0811ZM62.8633 19.3066C62.8633 20.5026 63.1104 21.4408 63.6045 22.1211C64.0986 22.7943 64.7861 23.1309 65.667 23.1309C66.5479 23.1309 67.2318 22.7871 67.7188 22.0996C68.2129 21.4121 68.46 20.4059 68.46 19.0811C68.46 17.9066 68.2057 16.9756 67.6973 16.2881C67.196 15.6006 66.512 15.2568 65.6455 15.2568C64.7933 15.2568 64.1165 15.597 63.6152 16.2773C63.1139 16.9505 62.8633 17.9603 62.8633 19.3066ZM77.043 20.0156L75.8828 21.208V25H73.2725V8.5H75.8828V18.0176L76.6992 16.9971L79.9111 13.377H83.0479L78.7295 18.2217L83.5098 25H80.4912L77.043 20.0156ZM94.9717 21.4014L96.8193 13.377H99.3652L96.1963 25H94.0479L91.5557 17.0186L89.1064 25H86.958L83.7783 13.377H86.3242L88.2041 21.3154L90.5889 13.377H92.5547L94.9717 21.4014ZM100.622 19.0811C100.622 17.9424 100.848 16.9183 101.299 16.0088C101.75 15.0921 102.384 14.3903 103.2 13.9033C104.017 13.4092 104.955 13.1621 106.015 13.1621C107.583 13.1621 108.854 13.667 109.828 14.6768C110.809 15.6865 111.339 17.0257 111.418 18.6943L111.429 19.3066C111.429 20.4525 111.207 21.4766 110.763 22.3789C110.326 23.2812 109.696 23.9795 108.872 24.4736C108.056 24.9678 107.11 25.2148 106.036 25.2148C104.396 25.2148 103.082 24.6706 102.094 23.582C101.113 22.4863 100.622 21.029 100.622 19.21V19.0811ZM103.232 19.3066C103.232 20.5026 103.479 21.4408 103.974 22.1211C104.468 22.7943 105.155 23.1309 106.036 23.1309C106.917 23.1309 107.601 22.7871 108.088 22.0996C108.582 21.4121 108.829 20.4059 108.829 19.0811C108.829 17.9066 108.575 16.9756 108.066 16.2881C107.565 15.6006 106.881 15.2568 106.015 15.2568C105.162 15.2568 104.486 15.597 103.984 16.2773C103.483 16.9505 103.232 17.9603 103.232 19.3066ZM119.722 15.7617C119.378 15.7044 119.023 15.6758 118.658 15.6758C117.462 15.6758 116.657 16.1341 116.241 17.0508V25H113.631V13.377H116.123L116.188 14.6768C116.818 13.667 117.691 13.1621 118.809 13.1621C119.181 13.1621 119.489 13.2122 119.732 13.3125L119.722 15.7617ZM123.825 13.377L123.9 14.5908C124.717 13.6383 125.834 13.1621 127.252 13.1621C128.806 13.1621 129.869 13.7565 130.442 14.9453C131.287 13.7565 132.476 13.1621 134.009 13.1621C135.291 13.1621 136.243 13.5166 136.866 14.2256C137.496 14.9346 137.819 15.9801 137.833 17.3623V25H135.223V17.4375C135.223 16.6999 135.062 16.1592 134.739 15.8154C134.417 15.4717 133.883 15.2998 133.139 15.2998C132.544 15.2998 132.057 15.4609 131.678 15.7832C131.305 16.0983 131.044 16.5137 130.894 17.0293L130.904 25H128.294V17.3516C128.258 15.9837 127.56 15.2998 126.199 15.2998C125.154 15.2998 124.412 15.7259 123.976 16.5781V25H121.365V13.377H123.825Z" fill="#312E81"/>
<path d="M22.4221 11.6973H22.4324C23.3225 11.6973 24.0438 11.0649 24.0438 10.2855C24.0438 9.50556 23.3225 8.87305 22.4324 8.87305C22.4209 8.87305 22.4093 8.87305 22.3977 8.87359H7.64244C7.63086 8.87305 7.61928 8.87305 7.60769 8.87305C6.7176 8.87305 5.99634 9.50551 5.99634 10.2855C5.99634 11.0649 6.7176 11.6973 7.60769 11.6973H7.61804" fill="#F1B986"/>
<path d="M22.0513 5.18622C17.3637 4.78802 12.6761 4.78802 7.98852 5.18622C7.62479 7.73994 7.51764 10.2937 7.66709 12.8474C7.7759 14.7064 9.47365 16.1861 11.5957 16.2739C13.8785 16.3683 16.1612 16.3683 18.444 16.2739C20.5661 16.1861 22.2638 14.7064 22.3726 12.8474C22.5222 10.2937 22.415 7.73994 22.0513 5.18622Z" fill="#F1D0A5"/>
<path d="M7.98871 5.18586C10.3321 4.9867 12.6762 4.88745 15.0203 4.88745C13.8335 4.88745 12.6468 4.98795 11.4601 5.18889C11.2755 7.76725 11.2216 10.3457 11.2971 12.9234C11.3468 14.6201 12.0545 16.0036 12.9832 16.3192C12.5209 16.3081 12.058 16.2928 11.5958 16.2738C9.47409 16.1862 7.77615 14.7064 7.66709 12.8474C7.51808 10.2936 7.62504 7.73974 7.98871 5.18586Z" fill="#F1B986"/>
<path d="M18.9248 7.31008C16.2305 8.22206 12.4032 7.8199 10.4744 6.12992C10.4744 6.12992 10.0164 8.87389 7.64336 8.87389L6.60853 9.17881C3.84474 -0.326872 9.73977 2.21301 9.73977 2.21301C10.2963 1.26798 11.107 0.876729 11.954 0.782361C12.0285 0.774276 12.1031 0.768253 12.1782 0.764237C12.1842 0.764237 12.1901 0.763857 12.1961 0.763423C12.7927 0.735585 13.3967 0.841673 13.9335 0.99291C14.1204 1.04576 14.2994 1.10383 14.467 1.16395C15.1414 1.40554 15.6326 1.67703 15.7357 1.73509C15.7491 1.74318 15.7559 1.7472 15.7559 1.7472C16.3626 1.0437 16.9412 0.407227 17.5774 0.407227C17.8384 0.407227 18.0188 0.494756 18.1399 0.634706C18.5989 1.16189 18.2218 2.42958 18.1914 2.52921L18.1901 2.53366C18.1905 2.53285 18.191 2.53122 18.1919 2.52921L18.1952 2.52194C18.2767 2.34205 19.1881 0.407227 20.8228 0.407227C20.9259 0.407227 21.0184 0.415692 21.1008 0.431809C22.3193 0.667754 21.3655 2.53523 21.2605 2.73287L21.2577 2.73851C21.2549 2.74334 21.2531 2.74698 21.2522 2.7486C21.3042 2.69054 23.3449 0.420522 24.2517 1.46192C24.2521 1.46274 24.2521 1.46274 24.2526 1.46312C25.1674 2.51955 21.6177 6.39848 18.9248 7.31008Z" fill="#F4DD45"/>
<path d="M24.2514 1.46183H24.2509C23.7924 1.06048 22.2043 2.95499 21.2505 2.7497L21.2574 2.73841C21.2546 2.74324 21.2528 2.74688 21.2519 2.74851C21.3038 2.69039 23.3445 0.42037 24.2514 1.46183Z" fill="#111827"/>
<path d="M21.1005 0.431619C20.4117 0.294545 19.7733 1.44328 19.4126 2.25878C19.2381 2.65313 18.6977 2.81142 18.2875 2.58855L18.189 2.53504L18.1899 2.53342L18.1913 2.52897H18.1917L18.1949 2.52169C18.2764 2.34181 19.1879 0.406982 20.8225 0.406982C20.9256 0.407037 21.0181 0.415502 21.1005 0.431619Z" fill="#111827"/>
<path d="M11.9532 0.782104C9.98209 1.08664 9.23723 5.04626 10.4737 6.12961C10.4737 6.12961 10.0157 8.87358 7.64266 8.87358L6.60783 9.17849C3.84397 -0.327129 9.739 2.21275 9.739 2.21275C10.2956 1.26772 11.1062 0.876472 11.9532 0.782104Z" fill="#111827"/>
<path d="M18.1394 0.634584C17.4466 0.0275742 16.9849 3.14055 15.4253 3.63908C13.8657 4.13762 13.7197 3.50033 13.7197 3.50033V3.49995C14.4876 3.25109 15.1357 2.46457 15.7549 1.74659C15.7553 1.74696 15.7553 1.74697 15.7553 1.74697C15.7742 1.72477 15.793 1.70301 15.8119 1.6812C15.8354 1.65336 15.8598 1.62552 15.8838 1.59812C16.4444 0.956485 16.9858 0.407104 17.5769 0.407104C17.8379 0.407104 18.0183 0.494634 18.1394 0.634584Z" fill="#111827"/>
<path d="M12.1974 0.76358C12.1907 0.76358 12.184 0.763581 12.1772 0.764034C12.1835 0.764034 12.1897 0.76358 12.196 0.763184L12.1974 0.76358Z" fill="#111827"/>
<path d="M26.801 15.2187V24.3917C26.801 24.9789 26.3335 25.4868 25.6788 25.611L16.3797 27.3768H15.1794V15.6512H16.3797L25.0756 13.9999C25.9625 13.8312 26.801 14.4238 26.801 15.2187Z" fill="#A7A2BC"/>
<path d="M15.1793 15.6512V27.3768H13.8899L4.59072 25.611C3.9361 25.4868 3.46851 24.9789 3.46851 24.3917V15.2187C3.46851 14.4238 4.30707 13.8312 5.19394 13.9999L13.8899 15.6512H15.1793Z" fill="#312E81"/>
<path d="M13.8899 27.3767V15.651H16.3793V27.3767" fill="#4B5160"/>
<path d="M3.2133 19.6508H2.72626C2.0071 19.6508 1.42407 19.1399 1.42407 18.5098V17.4856C1.42407 16.8555 2.0071 16.3446 2.72626 16.3446H3.2133C3.93246 16.3446 4.51549 16.8555 4.51549 17.4856V18.5098C4.51549 19.14 3.93252 19.6508 3.2133 19.6508Z" fill="#F1D0A5"/>
<path d="M3.46448 19.6293C3.38397 19.6439 3.29974 19.651 3.21428 19.651H2.72687C2.00783 19.651 1.42505 19.1398 1.42505 18.5098V17.4858C1.42505 16.8552 2.00783 16.3446 2.72687 16.3446H3.21428C3.29974 16.3446 3.38397 16.3517 3.46448 16.3663C2.8656 16.4683 2.41349 16.9307 2.41349 17.4858V18.5098C2.41349 19.0649 2.8656 19.5273 3.46448 19.6293Z" fill="#F1B986"/>
<path d="M27.5431 19.6508H27.0561C26.3369 19.6508 25.7539 19.1399 25.7539 18.5098V17.4856C25.7539 16.8555 26.3369 16.3446 27.0561 16.3446H27.5431C28.2623 16.3446 28.8453 16.8555 28.8453 17.4856V18.5098C28.8453 19.14 28.2624 19.6508 27.5431 19.6508Z" fill="#F1D0A5"/>
<path d="M27.7943 19.6293C27.7138 19.6439 27.6296 19.651 27.5441 19.651H27.0567C26.3377 19.651 25.7549 19.1398 25.7549 18.5098V17.4858C25.7549 16.8552 26.3377 16.3446 27.0567 16.3446H27.5441C27.6296 16.3446 27.7138 16.3517 27.7943 16.3663C27.1954 16.4683 26.7433 16.9307 26.7433 17.4858V18.5098C26.7433 19.0649 27.1954 19.5273 27.7943 19.6293Z" fill="#F1B986"/>
<path d="M16.9472 13.1547C17.0572 12.9516 16.9585 12.7089 16.7267 12.6125C16.4949 12.5161 16.218 12.6026 16.108 12.8057C15.9095 13.172 15.4824 13.4087 15.0199 13.4087C14.5573 13.4087 14.1302 13.172 13.9318 12.8057C13.8219 12.6026 13.5448 12.5161 13.3131 12.6125C13.0813 12.7089 12.9826 12.9516 13.0925 13.1547C13.4439 13.8035 14.2004 14.2227 15.0199 14.2227C15.8393 14.2227 16.5958 13.8034 16.9472 13.1547Z" fill="black"/>
<path d="M11.5891 11.4787C11.9597 11.4787 12.26 11.0869 12.26 10.6037C12.26 10.1204 11.9597 9.72864 11.5891 9.72864C11.2186 9.72864 10.9182 10.1204 10.9182 10.6037C10.9182 11.0869 11.2186 11.4787 11.5891 11.4787Z" fill="black"/>
<path d="M18.4509 11.4787C18.8215 11.4787 19.1219 11.0869 19.1219 10.6037C19.1219 10.1204 18.8215 9.72864 18.4509 9.72864C18.0804 9.72864 17.78 10.1204 17.78 10.6037C17.78 11.0869 18.0804 11.4787 18.4509 11.4787Z" fill="black"/>
<path d="M25.1169 17.2831C25.0626 17.0635 24.8155 16.924 24.5646 16.9716L19.4211 17.9484C19.1704 17.996 19.0112 18.2126 19.0656 18.4323C19.1127 18.6229 19.3052 18.7532 19.519 18.7532C19.5516 18.7532 19.5847 18.7501 19.6179 18.7438L24.7614 17.7671C25.0121 17.7195 25.1712 17.5028 25.1169 17.2831Z" fill="black"/>
<path d="M24.5644 18.4839L19.4209 19.4607C19.1702 19.5083 19.011 19.725 19.0653 19.9446C19.1124 20.1352 19.3049 20.2655 19.5188 20.2655C19.5514 20.2655 19.5845 20.2624 19.6176 20.2562L24.7611 19.2794C25.0118 19.2318 25.171 19.0151 25.1167 18.7954C25.0624 18.5758 24.8153 18.4364 24.5644 18.4839Z" fill="black"/>
<path d="M27.5435 15.9377H27.2654V15.2187C27.2654 14.7159 27.0091 14.2466 26.5622 13.9309C26.1154 13.6153 25.5377 13.4955 24.9772 13.6022L22.556 14.0619C22.7172 13.6805 22.8131 13.2779 22.8373 12.8681C22.8529 12.5999 22.8651 12.3313 22.8752 12.0624C23.8077 11.8841 24.5084 11.1554 24.5084 10.2856C24.5084 9.40561 23.7919 8.66972 22.8434 8.5021C22.7874 7.48256 22.691 6.46412 22.5549 5.45126C23.6417 4.43514 24.4961 3.30323 24.7643 2.47085C24.9345 1.94275 24.8861 1.52018 24.6203 1.215C24.3751 0.93336 24.0407 0.783589 23.6534 0.781906C23.21 0.780495 22.7255 0.966842 22.1736 1.3512C22.1945 1.00244 22.1247 0.714455 21.9642 0.490828C21.8036 0.266876 21.4751 0 20.8221 0C19.9536 0 19.2713 0.427067 18.7728 0.920499C18.7241 0.723626 18.6412 0.539884 18.5098 0.388593C18.2892 0.134415 17.9665 0 17.5767 0C16.8239 0 16.2301 0.547047 15.6392 1.21028C15.3916 1.08791 15.0483 0.932438 14.6418 0.786519C14.4574 0.720695 14.2674 0.65981 14.0751 0.604948C13.3926 0.413175 12.7521 0.329606 12.1716 0.356522C12.1674 0.356685 12.1617 0.357065 12.1563 0.357499C12.1547 0.357553 12.1532 0.357607 12.1516 0.357716C12.0657 0.362003 11.9823 0.368677 11.8953 0.378228C10.8945 0.489743 10.1042 0.934066 9.5407 1.70067C8.53275 1.3913 6.90628 1.27984 6.01997 2.53863C5.88527 2.72992 5.95302 2.98068 6.17139 3.0987C6.24745 3.13978 6.33161 3.15937 6.41485 3.15937C6.57067 3.15937 6.72284 3.09073 6.8106 2.96602C7.63901 1.7895 9.45821 2.54585 9.5342 2.57814C9.7613 2.67603 10.036 2.59664 10.152 2.3996C10.5789 1.67473 11.1875 1.27762 12.0115 1.1858C12.0749 1.17886 12.1364 1.17392 12.1995 1.17066C12.2091 1.17034 12.219 1.16974 12.2289 1.16903C12.6945 1.14847 13.22 1.21955 13.7894 1.37953C13.9586 1.42777 14.1274 1.48187 14.2904 1.5401C14.5961 1.64982 14.8637 1.76676 15.0706 1.86509C14.5832 2.4237 14.0809 2.94969 13.5582 3.11883C13.3175 3.1967 13.1945 3.43075 13.2833 3.64162C13.3723 3.8525 13.6394 3.96027 13.88 3.88245C14.7379 3.60483 15.3965 2.83953 16.0335 2.09946C16.5521 1.49685 17.1398 0.813977 17.5767 0.813977C17.7013 0.813977 17.7419 0.848652 17.7702 0.881157C17.9991 1.14434 17.8883 1.95886 17.7415 2.42609C17.6751 2.63577 17.8087 2.85407 18.0447 2.92169C18.2808 2.98941 18.5357 2.88235 18.6235 2.67885C18.6316 2.66019 19.4664 0.813977 20.8221 0.813977C21.0987 0.813977 21.1582 0.896677 21.1777 0.92381C21.393 1.2233 21.0986 2.08514 20.8321 2.57304C20.7292 2.76047 20.8042 2.98572 21.0059 3.09534C21.2076 3.20495 21.4714 3.1636 21.6171 2.99951C21.6204 2.99582 21.9479 2.62882 22.3906 2.26394C23.1209 1.66187 23.5115 1.59583 23.647 1.59583H23.6488C23.73 1.59621 23.8006 1.61553 23.8817 1.70865C23.9561 1.79417 23.9519 1.99636 23.8702 2.24962C23.4143 3.66452 20.8025 6.23745 18.7564 6.93015C16.0868 7.83393 12.5186 7.3456 10.8022 5.8417C10.678 5.73284 10.4943 5.69475 10.3276 5.74315C10.1609 5.79161 10.0396 5.91826 10.0142 6.07059C10.0131 6.07677 9.90685 6.69502 9.5368 7.31234C9.07776 8.07829 8.44035 8.46666 7.64235 8.46666L7.64062 8.46672C7.62959 8.4665 7.61863 8.46612 7.60761 8.46612C7.36545 8.46612 7.13302 8.50302 6.91669 8.57015C6.43999 6.8049 6.25457 5.37838 6.36729 4.32661C6.39125 4.10282 6.20366 3.90438 5.94825 3.88338C5.6929 3.86243 5.46636 4.02674 5.44239 4.25053C5.31413 5.44762 5.53324 7.06027 6.09187 9.04432C5.7448 9.36964 5.53176 9.80609 5.53176 10.2856C5.53176 11.1556 6.23265 11.8844 7.16553 12.0625C7.17563 12.3316 7.18783 12.6004 7.20356 12.868C7.22635 13.2604 7.31516 13.6471 7.46448 14.0146L5.29245 13.6022C4.73184 13.4955 4.15401 13.6153 3.70711 13.9309C3.2602 14.2466 3.00393 14.7159 3.00393 15.2187V15.9377H2.72591C1.75178 15.9377 0.959229 16.6322 0.959229 17.4857V18.5098C0.959229 19.3634 1.75178 20.0578 2.72591 20.0578H3.00393V24.3916C3.00393 25.1649 3.62988 25.845 4.49228 26.0087L13.7914 27.7745L13.793 27.7747C13.8059 27.7771 13.819 27.7789 13.8322 27.7803C13.8352 27.7806 13.8381 27.7812 13.841 27.7815C13.8564 27.7829 13.872 27.7836 13.8878 27.7836L13.8898 27.7837H16.3795L16.3816 27.7836C16.3974 27.7836 16.413 27.7829 16.4283 27.7815C16.4313 27.7812 16.4342 27.7806 16.4372 27.7803C16.4504 27.7789 16.4634 27.7771 16.4763 27.7747L16.4779 27.7745L25.777 26.0087C26.6394 25.845 27.2654 25.1649 27.2654 24.3916V23.8366C27.2654 23.6118 27.0574 23.4296 26.8009 23.4296C26.5444 23.4296 26.3364 23.6118 26.3364 23.8366V24.3916C26.3364 24.7845 26.0184 25.13 25.5803 25.2132L16.844 26.8721V15.9794L25.1741 14.3976C25.4587 14.3434 25.7522 14.4043 25.9792 14.5647C26.2063 14.725 26.3365 14.9634 26.3365 15.2187V16.0726C25.7203 16.3146 25.2899 16.8568 25.2899 17.4856V18.5098C25.2899 19.1388 25.7203 19.6809 26.3365 19.9228V22.2087C26.3365 22.4334 26.5445 22.6156 26.801 22.6156C27.0575 22.6156 27.2655 22.4334 27.2655 22.2087V20.0578H27.5435C28.5176 20.0578 29.3102 19.3634 29.3102 18.5098V17.4856C29.3101 16.6321 28.5176 15.9377 27.5435 15.9377ZM23.5794 10.2855C23.5794 10.6946 23.2986 11.0467 22.8974 11.2034C22.9065 10.5897 22.901 9.97507 22.8808 9.36025C23.291 9.51355 23.5794 9.8705 23.5794 10.2855ZM6.46087 10.2855C6.46087 9.87094 6.74873 9.51425 7.15835 9.36068C7.13834 9.97404 7.1337 10.5895 7.14299 11.2034C6.74167 11.0468 6.46087 10.6946 6.46087 10.2855ZM8.13143 12.8263C8.06176 11.6438 8.049 10.4431 8.0921 9.25117C9.04122 9.12506 9.81909 8.59223 10.3594 7.69078C10.5323 7.40231 10.6569 7.11486 10.7449 6.86975C11.6913 7.48788 12.9405 7.91717 14.3442 8.09809C15.9974 8.31119 17.6833 8.16609 19.0912 7.68948C19.9538 7.39748 20.8697 6.84256 21.7118 6.17684C21.9715 8.38749 22.0383 10.6204 21.9095 12.8263C21.8792 13.339 21.7089 13.8375 21.4159 14.2784L16.3298 15.2442H13.9396L8.59202 14.2288C8.31896 13.8007 8.1601 13.3195 8.13143 12.8263ZM14.3545 16.0581H15.915V26.9698H14.3545V16.0581ZM1.88834 18.5098V17.4856C1.88834 17.0809 2.26414 16.7516 2.72603 16.7516H3.21307C3.67496 16.7516 4.05077 17.0809 4.05077 17.4856V18.5098C4.05077 18.9145 3.67496 19.2438 3.21307 19.2438H2.72603C2.26414 19.2438 1.88834 18.9146 1.88834 18.5098ZM3.93303 24.3916V19.9229C4.5492 19.6809 4.97969 19.1388 4.97969 18.5099V17.4857C4.97969 16.8568 4.5492 16.3146 3.93303 16.0727V15.2187C3.93303 14.9634 4.06328 14.725 4.29032 14.5647C4.51737 14.4043 4.8108 14.3434 5.09563 14.3976L13.4255 15.9794V26.8721L4.68911 25.2132C4.251 25.13 3.93303 24.7845 3.93303 24.3916ZM28.3811 18.5098C28.3811 18.9145 28.0053 19.2438 27.5435 19.2438H27.0564C26.5945 19.2438 26.2187 18.9145 26.2187 18.5098V17.4856C26.2187 17.0809 26.5945 16.7516 27.0564 16.7516H27.5435C28.0053 16.7516 28.3811 17.0809 28.3811 17.4856V18.5098Z" fill="black"/>
</svg>
