<svg width="158" height="31" viewBox="0 0 158 31" fill="none" xmlns="http://www.w3.org/2000/svg">
<path d="M45.98 16.992C46.8307 17.2707 47.5053 17.74 48.004 18.4C48.5027 19.0453 48.752 19.852 48.752 20.82C48.752 22.1547 48.2387 23.1887 47.212 23.922C46.1853 24.6407 44.6893 25 42.724 25H35.068V9.6H42.284C44.1027 9.6 45.5033 9.95933 46.486 10.678C47.4687 11.382 47.96 12.3573 47.96 13.604C47.96 14.3667 47.784 15.0413 47.432 15.628C47.08 16.2147 46.596 16.6693 45.98 16.992ZM37.928 11.844V16.09H41.976C42.9733 16.09 43.736 15.914 44.264 15.562C44.8067 15.1953 45.078 14.6673 45.078 13.978C45.078 13.274 44.8067 12.746 44.264 12.394C43.736 12.0273 42.9733 11.844 41.976 11.844H37.928ZM42.548 22.756C44.7627 22.756 45.87 22.0153 45.87 20.534C45.87 19.0527 44.7627 18.312 42.548 18.312H37.928V22.756H42.548ZM56.8203 25.154C55.6323 25.154 54.5617 24.8973 53.6083 24.384C52.655 23.8707 51.907 23.1593 51.3643 22.25C50.8363 21.326 50.5723 20.2847 50.5723 19.126C50.5723 17.9673 50.8363 16.9333 51.3643 16.024C51.907 15.1147 52.655 14.4033 53.6083 13.89C54.5617 13.3767 55.6323 13.12 56.8203 13.12C58.023 13.12 59.101 13.3767 60.0543 13.89C61.0077 14.4033 61.7483 15.1147 62.2763 16.024C62.819 16.9333 63.0903 17.9673 63.0903 19.126C63.0903 20.2847 62.819 21.326 62.2763 22.25C61.7483 23.1593 61.0077 23.8707 60.0543 24.384C59.101 24.8973 58.023 25.154 56.8203 25.154ZM56.8203 22.8C57.8323 22.8 58.6683 22.4627 59.3283 21.788C59.9883 21.1133 60.3183 20.226 60.3183 19.126C60.3183 18.026 59.9883 17.1387 59.3283 16.464C58.6683 15.7893 57.8323 15.452 56.8203 15.452C55.8083 15.452 54.9723 15.7893 54.3123 16.464C53.667 17.1387 53.3443 18.026 53.3443 19.126C53.3443 20.226 53.667 21.1133 54.3123 21.788C54.9723 22.4627 55.8083 22.8 56.8203 22.8ZM71 25.154C69.812 25.154 68.7413 24.8973 67.788 24.384C66.8347 23.8707 66.0867 23.1593 65.544 22.25C65.016 21.326 64.752 20.2847 64.752 19.126C64.752 17.9673 65.016 16.9333 65.544 16.024C66.0867 15.1147 66.8347 14.4033 67.788 13.89C68.7413 13.3767 69.812 13.12 71 13.12C72.2027 13.12 73.2807 13.3767 74.234 13.89C75.1873 14.4033 75.928 15.1147 76.456 16.024C76.9987 16.9333 77.27 17.9673 77.27 19.126C77.27 20.2847 76.9987 21.326 76.456 22.25C75.928 23.1593 75.1873 23.8707 74.234 24.384C73.2807 24.8973 72.2027 25.154 71 25.154ZM71 22.8C72.012 22.8 72.848 22.4627 73.508 21.788C74.168 21.1133 74.498 20.226 74.498 19.126C74.498 18.026 74.168 17.1387 73.508 16.464C72.848 15.7893 72.012 15.452 71 15.452C69.988 15.452 69.152 15.7893 68.492 16.464C67.8467 17.1387 67.524 18.026 67.524 19.126C67.524 20.226 67.8467 21.1133 68.492 21.788C69.152 22.4627 69.988 22.8 71 22.8ZM84.6957 19.962L82.6497 21.898V25H79.8997V8.676H82.6497V18.532L88.3477 13.252H91.6477L86.7417 18.18L92.1097 25H88.7657L84.6957 19.962ZM111.546 13.252L107.212 25H104.572L101.536 16.904L98.456 25H95.816L91.504 13.252H94.1L97.202 21.92L100.436 13.252H102.746L105.914 21.964L109.104 13.252H111.546ZM118.395 25.154C117.207 25.154 116.136 24.8973 115.183 24.384C114.229 23.8707 113.481 23.1593 112.939 22.25C112.411 21.326 112.147 20.2847 112.147 19.126C112.147 17.9673 112.411 16.9333 112.939 16.024C113.481 15.1147 114.229 14.4033 115.183 13.89C116.136 13.3767 117.207 13.12 118.395 13.12C119.597 13.12 120.675 13.3767 121.629 13.89C122.582 14.4033 123.323 15.1147 123.851 16.024C124.393 16.9333 124.665 17.9673 124.665 19.126C124.665 20.2847 124.393 21.326 123.851 22.25C123.323 23.1593 122.582 23.8707 121.629 24.384C120.675 24.8973 119.597 25.154 118.395 25.154ZM118.395 22.8C119.407 22.8 120.243 22.4627 120.903 21.788C121.563 21.1133 121.893 20.226 121.893 19.126C121.893 18.026 121.563 17.1387 120.903 16.464C120.243 15.7893 119.407 15.452 118.395 15.452C117.383 15.452 116.547 15.7893 115.887 16.464C115.241 17.1387 114.919 18.026 114.919 19.126C114.919 20.226 115.241 21.1133 115.887 21.788C116.547 22.4627 117.383 22.8 118.395 22.8ZM129.912 14.968C130.704 13.736 132.098 13.12 134.092 13.12V15.738C133.858 15.694 133.645 15.672 133.454 15.672C132.384 15.672 131.548 15.9873 130.946 16.618C130.345 17.234 130.044 18.1287 130.044 19.302V25H127.294V13.252H129.912V14.968ZM151.253 13.12C152.734 13.12 153.908 13.5527 154.773 14.418C155.638 15.2687 156.071 16.552 156.071 18.268V25H153.321V18.62C153.321 17.5933 153.094 16.8233 152.639 16.31C152.184 15.782 151.532 15.518 150.681 15.518C149.757 15.518 149.016 15.826 148.459 16.442C147.902 17.0433 147.623 17.9087 147.623 19.038V25H144.873V18.62C144.873 17.5933 144.646 16.8233 144.191 16.31C143.736 15.782 143.084 15.518 142.233 15.518C141.294 15.518 140.546 15.8187 139.989 16.42C139.446 17.0213 139.175 17.894 139.175 19.038V25H136.425V13.252H139.043V14.748C139.483 14.22 140.033 13.8167 140.693 13.538C141.353 13.2593 142.086 13.12 142.893 13.12C143.773 13.12 144.55 13.2887 145.225 13.626C145.914 13.9487 146.457 14.4327 146.853 15.078C147.337 14.462 147.96 13.9853 148.723 13.648C149.486 13.296 150.329 13.12 151.253 13.12Z" fill="#312E81"/>
<path d="M22.4221 11.6973H22.4324C23.3225 11.6973 24.0438 11.0649 24.0438 10.2855C24.0438 9.50556 23.3225 8.87305 22.4324 8.87305C22.4209 8.87305 22.4093 8.87305 22.3977 8.87359H7.64244C7.63086 8.87305 7.61928 8.87305 7.60769 8.87305C6.7176 8.87305 5.99634 9.50551 5.99634 10.2855C5.99634 11.0649 6.7176 11.6973 7.60769 11.6973H7.61804" fill="#F1B986"/>
<path d="M22.0513 5.18622C17.3637 4.78802 12.6761 4.78802 7.98852 5.18622C7.62479 7.73994 7.51764 10.2937 7.66709 12.8474C7.7759 14.7064 9.47365 16.1861 11.5957 16.2739C13.8785 16.3683 16.1612 16.3683 18.444 16.2739C20.5661 16.1861 22.2638 14.7064 22.3726 12.8474C22.5222 10.2937 22.415 7.73994 22.0513 5.18622V5.18622Z" fill="#F1D0A5"/>
<path d="M7.98871 5.18586C10.3321 4.9867 12.6762 4.88745 15.0203 4.88745C13.8335 4.88745 12.6468 4.98795 11.4601 5.18889C11.2755 7.76725 11.2216 10.3457 11.2971 12.9234C11.3468 14.6201 12.0545 16.0036 12.9832 16.3192C12.5209 16.3081 12.058 16.2928 11.5958 16.2738C9.47409 16.1862 7.77615 14.7064 7.66709 12.8474C7.51808 10.2936 7.62504 7.73974 7.98871 5.18586V5.18586Z" fill="#F1B986"/>
<path d="M18.9248 7.31008C16.2305 8.22206 12.4032 7.8199 10.4744 6.12992C10.4744 6.12992 10.0164 8.87389 7.64336 8.87389L6.60853 9.17881C3.84474 -0.326872 9.73977 2.21301 9.73977 2.21301C10.2963 1.26798 11.107 0.876729 11.954 0.782361C12.0285 0.774276 12.1031 0.768253 12.1782 0.764237C12.1842 0.764237 12.1901 0.763857 12.1961 0.763423C12.7927 0.735585 13.3967 0.841673 13.9335 0.99291C14.1204 1.04576 14.2994 1.10383 14.467 1.16395C15.1414 1.40554 15.6326 1.67703 15.7357 1.73509C15.7491 1.74318 15.7559 1.7472 15.7559 1.7472C16.3626 1.0437 16.9412 0.407227 17.5774 0.407227C17.8384 0.407227 18.0188 0.494756 18.1399 0.634706C18.5989 1.16189 18.2218 2.42958 18.1914 2.52921L18.1901 2.53366C18.1905 2.53285 18.191 2.53122 18.1919 2.52921L18.1952 2.52194C18.2767 2.34205 19.1881 0.407227 20.8228 0.407227C20.9259 0.407227 21.0184 0.415692 21.1008 0.431809C22.3193 0.667754 21.3655 2.53523 21.2605 2.73287L21.2577 2.73851C21.2549 2.74334 21.2531 2.74698 21.2522 2.7486C21.3042 2.69054 23.3449 0.420522 24.2517 1.46192C24.2521 1.46274 24.2521 1.46274 24.2526 1.46312C25.1674 2.51955 21.6177 6.39848 18.9248 7.31008V7.31008Z" fill="#F4DD45"/>
<path d="M24.2514 1.46183H24.2509C23.7924 1.06048 22.2043 2.95499 21.2505 2.7497L21.2574 2.73841C21.2546 2.74324 21.2528 2.74688 21.2519 2.74851C21.3038 2.69039 23.3445 0.42037 24.2514 1.46183V1.46183Z" fill="#111827"/>
<path d="M21.1005 0.431619C20.4117 0.294545 19.7733 1.44328 19.4126 2.25878C19.2381 2.65313 18.6977 2.81142 18.2875 2.58855L18.189 2.53504L18.1899 2.53342L18.1913 2.52897H18.1917L18.1949 2.52169C18.2764 2.34181 19.1879 0.406982 20.8225 0.406982C20.9256 0.407037 21.0181 0.415502 21.1005 0.431619V0.431619Z" fill="#111827"/>
<path d="M11.9532 0.782104C9.98209 1.08664 9.23723 5.04626 10.4737 6.12961C10.4737 6.12961 10.0157 8.87358 7.64266 8.87358L6.60783 9.17849C3.84397 -0.327129 9.739 2.21275 9.739 2.21275C10.2956 1.26772 11.1062 0.876472 11.9532 0.782104V0.782104Z" fill="#111827"/>
<path d="M18.1394 0.634584C17.4466 0.0275742 16.9849 3.14055 15.4253 3.63908C13.8657 4.13762 13.7197 3.50033 13.7197 3.50033V3.49995C14.4876 3.25109 15.1357 2.46457 15.7549 1.74658C15.7553 1.74696 15.7553 1.74697 15.7553 1.74697C15.7742 1.72477 15.793 1.70301 15.8119 1.6812C15.8354 1.65336 15.8598 1.62552 15.8838 1.59812C16.4444 0.956485 16.9858 0.407104 17.5769 0.407104C17.8379 0.407104 18.0183 0.494634 18.1394 0.634584V0.634584Z" fill="#111827"/>
<path d="M12.1974 0.76358C12.1907 0.76358 12.184 0.763581 12.1772 0.764034C12.1835 0.764034 12.1897 0.76358 12.196 0.763184L12.1974 0.76358Z" fill="#111827"/>
<path d="M26.801 15.2187V24.3917C26.801 24.9789 26.3335 25.4868 25.6788 25.611L16.3797 27.3768H15.1794V15.6512H16.3797L25.0756 13.9999C25.9625 13.8312 26.801 14.4238 26.801 15.2187V15.2187Z" fill="#A7A2BC"/>
<path d="M15.1793 15.6512V27.3768H13.8899L4.59072 25.611C3.9361 25.4868 3.46851 24.9789 3.46851 24.3917V15.2187C3.46851 14.4238 4.30707 13.8312 5.19394 13.9999L13.8899 15.6512H15.1793Z" fill="#312E81"/>
<path d="M13.8899 27.3767V15.651H16.3793V27.3767" fill="#4B5160"/>
<path d="M3.2133 19.6508H2.72626C2.0071 19.6508 1.42407 19.1399 1.42407 18.5098V17.4856C1.42407 16.8555 2.0071 16.3446 2.72626 16.3446H3.2133C3.93246 16.3446 4.51549 16.8555 4.51549 17.4856V18.5098C4.51549 19.14 3.93252 19.6508 3.2133 19.6508V19.6508Z" fill="#F1D0A5"/>
<path d="M3.46448 19.6293C3.38397 19.6439 3.29974 19.651 3.21427 19.651H2.72687C2.00783 19.651 1.42505 19.1398 1.42505 18.5098V17.4858C1.42505 16.8552 2.00783 16.3446 2.72687 16.3446H3.21427C3.29974 16.3446 3.38397 16.3517 3.46448 16.3663C2.8656 16.4683 2.41349 16.9307 2.41349 17.4858V18.5098C2.41349 19.0649 2.8656 19.5273 3.46448 19.6293Z" fill="#F1B986"/>
<path d="M27.5431 19.6508H27.0561C26.3369 19.6508 25.7539 19.1399 25.7539 18.5098V17.4856C25.7539 16.8555 26.3369 16.3446 27.0561 16.3446H27.5431C28.2623 16.3446 28.8453 16.8555 28.8453 17.4856V18.5098C28.8453 19.14 28.2624 19.6508 27.5431 19.6508Z" fill="#F1D0A5"/>
<path d="M27.7943 19.6293C27.7138 19.6439 27.6296 19.651 27.5441 19.651H27.0567C26.3377 19.651 25.7549 19.1398 25.7549 18.5098V17.4858C25.7549 16.8552 26.3377 16.3446 27.0567 16.3446H27.5441C27.6296 16.3446 27.7138 16.3517 27.7943 16.3663C27.1954 16.4683 26.7433 16.9307 26.7433 17.4858V18.5098C26.7433 19.0649 27.1954 19.5273 27.7943 19.6293Z" fill="#F1B986"/>
<path d="M16.9472 13.1547C17.0572 12.9516 16.9585 12.7089 16.7267 12.6125C16.4949 12.5161 16.218 12.6026 16.108 12.8057C15.9095 13.172 15.4824 13.4087 15.0199 13.4087C14.5573 13.4087 14.1302 13.172 13.9318 12.8057C13.8219 12.6026 13.5448 12.5161 13.3131 12.6125C13.0813 12.7089 12.9826 12.9516 13.0925 13.1547C13.4439 13.8035 14.2004 14.2227 15.0199 14.2227C15.8393 14.2227 16.5958 13.8034 16.9472 13.1547V13.1547Z" fill="black"/>
<path d="M11.5891 11.4787C11.9597 11.4787 12.26 11.0869 12.26 10.6037C12.26 10.1204 11.9597 9.72864 11.5891 9.72864C11.2186 9.72864 10.9182 10.1204 10.9182 10.6037C10.9182 11.0869 11.2186 11.4787 11.5891 11.4787Z" fill="black"/>
<path d="M18.4509 11.4787C18.8215 11.4787 19.1219 11.0869 19.1219 10.6037C19.1219 10.1204 18.8215 9.72864 18.4509 9.72864C18.0804 9.72864 17.78 10.1204 17.78 10.6037C17.78 11.0869 18.0804 11.4787 18.4509 11.4787Z" fill="black"/>
<path d="M25.1169 17.2831C25.0626 17.0635 24.8155 16.924 24.5646 16.9716L19.4211 17.9484C19.1704 17.996 19.0112 18.2126 19.0656 18.4323C19.1127 18.6229 19.3052 18.7532 19.519 18.7532C19.5516 18.7532 19.5847 18.7501 19.6179 18.7438L24.7614 17.7671C25.0121 17.7195 25.1712 17.5028 25.1169 17.2831Z" fill="black"/>
<path d="M24.5644 18.4839L19.4209 19.4607C19.1702 19.5083 19.011 19.725 19.0653 19.9446C19.1124 20.1352 19.3049 20.2655 19.5188 20.2655C19.5514 20.2655 19.5845 20.2624 19.6176 20.2562L24.7611 19.2794C25.0118 19.2318 25.171 19.0151 25.1167 18.7954C25.0624 18.5758 24.8153 18.4364 24.5644 18.4839Z" fill="black"/>
<path d="M27.5435 15.9377H27.2654V15.2187C27.2654 14.7159 27.0091 14.2466 26.5622 13.9309C26.1154 13.6153 25.5377 13.4955 24.9772 13.6022L22.556 14.0619C22.7172 13.6805 22.8131 13.2779 22.8373 12.8681C22.8529 12.5999 22.8651 12.3313 22.8752 12.0624C23.8077 11.8841 24.5084 11.1554 24.5084 10.2856C24.5084 9.40561 23.7919 8.66972 22.8434 8.5021C22.7874 7.48257 22.691 6.46412 22.5549 5.45126C23.6417 4.43514 24.4961 3.30323 24.7643 2.47085C24.9345 1.94275 24.8861 1.52018 24.6203 1.215C24.3751 0.93336 24.0407 0.783589 23.6534 0.781906C23.21 0.780495 22.7255 0.966842 22.1736 1.3512C22.1945 1.00244 22.1247 0.714455 21.9642 0.490828C21.8036 0.266876 21.4751 0 20.8221 0C19.9536 0 19.2713 0.427067 18.7728 0.920499C18.7241 0.723626 18.6412 0.539884 18.5098 0.388593C18.2892 0.134415 17.9665 0 17.5767 0C16.8239 0 16.2301 0.547047 15.6392 1.21028C15.3916 1.08791 15.0483 0.932438 14.6418 0.786519C14.4574 0.720695 14.2674 0.65981 14.0751 0.604948C13.3926 0.413175 12.7521 0.329606 12.1716 0.356522C12.1674 0.356685 12.1617 0.357065 12.1563 0.357499C12.1547 0.357553 12.1532 0.357607 12.1516 0.357716C12.0657 0.362003 11.9823 0.368677 11.8953 0.378228C10.8945 0.489743 10.1042 0.934066 9.5407 1.70067C8.53275 1.3913 6.90628 1.27984 6.01997 2.53863C5.88527 2.72992 5.95302 2.98068 6.17139 3.0987C6.24745 3.13978 6.33161 3.15937 6.41485 3.15937C6.57067 3.15937 6.72284 3.09073 6.8106 2.96602C7.63901 1.7895 9.45821 2.54585 9.5342 2.57814C9.7613 2.67603 10.036 2.59664 10.152 2.3996C10.5789 1.67473 11.1875 1.27762 12.0115 1.1858C12.0748 1.17886 12.1364 1.17392 12.1995 1.17066C12.2091 1.17034 12.219 1.16974 12.2289 1.16903C12.6945 1.14847 13.22 1.21955 13.7894 1.37953C13.9586 1.42777 14.1274 1.48187 14.2904 1.5401C14.5961 1.64982 14.8637 1.76676 15.0706 1.86509C14.5832 2.4237 14.0809 2.94969 13.5582 3.11883C13.3175 3.1967 13.1945 3.43075 13.2833 3.64162C13.3723 3.8525 13.6394 3.96027 13.88 3.88245C14.7379 3.60483 15.3965 2.83953 16.0335 2.09946C16.5521 1.49685 17.1398 0.813977 17.5767 0.813977C17.7013 0.813977 17.7419 0.848653 17.7702 0.881157C17.9991 1.14434 17.8883 1.95886 17.7415 2.42609C17.6751 2.63577 17.8087 2.85407 18.0447 2.92169C18.2808 2.98941 18.5357 2.88235 18.6235 2.67885C18.6316 2.66019 19.4664 0.813977 20.8221 0.813977C21.0987 0.813977 21.1582 0.896677 21.1777 0.92381C21.393 1.2233 21.0986 2.08514 20.8321 2.57304C20.7292 2.76047 20.8042 2.98572 21.0059 3.09534C21.2076 3.20495 21.4714 3.1636 21.6171 2.99951C21.6204 2.99582 21.9479 2.62882 22.3906 2.26394C23.1209 1.66187 23.5115 1.59583 23.647 1.59583H23.6488C23.73 1.59621 23.8006 1.61553 23.8817 1.70865C23.9561 1.79417 23.9519 1.99636 23.8702 2.24962C23.4143 3.66452 20.8025 6.23745 18.7564 6.93015C16.0868 7.83393 12.5186 7.3456 10.8022 5.8417C10.678 5.73284 10.4943 5.69475 10.3276 5.74315C10.1609 5.79161 10.0396 5.91826 10.0142 6.07059C10.0131 6.07677 9.90684 6.69502 9.5368 7.31234C9.07776 8.07829 8.44035 8.46666 7.64235 8.46666L7.64062 8.46672C7.62959 8.4665 7.61863 8.46612 7.60761 8.46612C7.36545 8.46612 7.13302 8.50302 6.91669 8.57015C6.43999 6.8049 6.25457 5.37838 6.36729 4.32661C6.39125 4.10282 6.20366 3.90438 5.94825 3.88338C5.6929 3.86243 5.46636 4.02674 5.44239 4.25053C5.31413 5.44762 5.53324 7.06027 6.09187 9.04432C5.7448 9.36964 5.53176 9.80609 5.53176 10.2856C5.53176 11.1556 6.23265 11.8844 7.16553 12.0625C7.17563 12.3316 7.18783 12.6004 7.20356 12.868C7.22635 13.2604 7.31516 13.6471 7.46448 14.0146L5.29245 13.6022C4.73184 13.4955 4.15401 13.6153 3.70711 13.9309C3.2602 14.2466 3.00393 14.7159 3.00393 15.2187V15.9377H2.72591C1.75178 15.9377 0.959229 16.6322 0.959229 17.4857V18.5098C0.959229 19.3634 1.75178 20.0578 2.72591 20.0578H3.00393V24.3916C3.00393 25.1649 3.62988 25.845 4.49228 26.0087L13.7914 27.7745L13.793 27.7747C13.8059 27.7771 13.819 27.7789 13.8322 27.7803C13.8352 27.7806 13.8381 27.7812 13.841 27.7815C13.8564 27.7829 13.872 27.7836 13.8878 27.7836L13.8898 27.7837H16.3795L16.3816 27.7836C16.3974 27.7836 16.413 27.7829 16.4283 27.7815C16.4313 27.7812 16.4342 27.7806 16.4372 27.7803C16.4504 27.7789 16.4634 27.7771 16.4763 27.7747L16.4779 27.7745L25.777 26.0087C26.6394 25.845 27.2654 25.1649 27.2654 24.3916V23.8366C27.2654 23.6118 27.0574 23.4296 26.8009 23.4296C26.5444 23.4296 26.3364 23.6118 26.3364 23.8366V24.3916C26.3364 24.7845 26.0184 25.13 25.5803 25.2132L16.844 26.8721V15.9794L25.1741 14.3976C25.4587 14.3434 25.7522 14.4043 25.9792 14.5647C26.2063 14.725 26.3365 14.9634 26.3365 15.2187V16.0726C25.7203 16.3147 25.2899 16.8568 25.2899 17.4856V18.5098C25.2899 19.1388 25.7203 19.6809 26.3365 19.9228V22.2087C26.3365 22.4334 26.5445 22.6156 26.801 22.6156C27.0575 22.6156 27.2655 22.4334 27.2655 22.2087V20.0578H27.5435C28.5176 20.0578 29.3102 19.3634 29.3102 18.5098V17.4856C29.3101 16.6321 28.5176 15.9377 27.5435 15.9377ZM23.5794 10.2855C23.5794 10.6946 23.2986 11.0467 22.8974 11.2034C22.9065 10.5897 22.901 9.97507 22.8808 9.36025C23.291 9.51355 23.5794 9.8705 23.5794 10.2855ZM6.46087 10.2855C6.46087 9.87094 6.74873 9.51425 7.15835 9.36068C7.13834 9.97404 7.1337 10.5895 7.14299 11.2034C6.74167 11.0468 6.46087 10.6946 6.46087 10.2855ZM8.13143 12.8263C8.06176 11.6438 8.049 10.4431 8.0921 9.25117C9.04122 9.12506 9.81909 8.59223 10.3594 7.69078C10.5323 7.40231 10.6569 7.11486 10.7449 6.86975C11.6913 7.48788 12.9405 7.91717 14.3442 8.09809C15.9974 8.31119 17.6833 8.16609 19.0912 7.68948C19.9538 7.39748 20.8697 6.84256 21.7118 6.17684C21.9715 8.38749 22.0383 10.6204 21.9095 12.8263C21.8792 13.339 21.7089 13.8375 21.4159 14.2784L16.3298 15.2442H13.9396L8.59202 14.2288C8.31896 13.8007 8.1601 13.3195 8.13143 12.8263ZM14.3545 16.0581H15.915V26.9698H14.3545V16.0581ZM1.88834 18.5098V17.4856C1.88834 17.0809 2.26414 16.7516 2.72603 16.7516H3.21307C3.67496 16.7516 4.05077 17.0809 4.05077 17.4856V18.5098C4.05077 18.9145 3.67496 19.2438 3.21307 19.2438H2.72603C2.26414 19.2438 1.88834 18.9146 1.88834 18.5098ZM3.93303 24.3916V19.9229C4.5492 19.6809 4.97969 19.1388 4.97969 18.5099V17.4857C4.97969 16.8568 4.5492 16.3146 3.93303 16.0727V15.2187C3.93303 14.9634 4.06328 14.725 4.29032 14.5647C4.51737 14.4043 4.8108 14.3434 5.09563 14.3976L13.4255 15.9794V26.8721L4.68911 25.2132C4.251 25.13 3.93303 24.7845 3.93303 24.3916ZM28.3811 18.5098C28.3811 18.9145 28.0053 19.2438 27.5435 19.2438H27.0564C26.5945 19.2438 26.2187 18.9145 26.2187 18.5098V17.4856C26.2187 17.0809 26.5945 16.7516 27.0564 16.7516H27.5435C28.0053 16.7516 28.3811 17.0809 28.3811 17.4856V18.5098Z" fill="black"/>
</svg>
