<svg width="123" height="33" viewBox="0 0 123 33" fill="none" xmlns="http://www.w3.org/2000/svg">
<path d="M34.342 8.18H38.742C40.4287 8.18 41.7193 8.52467 42.614 9.214C43.5087 9.90333 43.956 11.084 43.956 12.756C43.956 13.8413 43.736 14.692 43.296 15.308C42.856 15.9093 42.218 16.276 41.382 16.408C43.4353 16.804 44.462 18.2707 44.462 20.808C44.462 22.524 44.044 23.822 43.208 24.702C42.372 25.5673 41.1327 26 39.49 26H34.342V8.18ZM38.698 15.462C39.6367 15.462 40.2747 15.2567 40.612 14.846C40.964 14.4207 41.14 13.7387 41.14 12.8C41.14 11.8907 40.9127 11.2747 40.458 10.952C40.018 10.6147 39.2773 10.446 38.236 10.446H37.576V15.462H38.698ZM38.83 23.712C39.7833 23.712 40.4433 23.4847 40.81 23.03C41.1767 22.5753 41.36 21.8273 41.36 20.786C41.36 19.7153 41.1547 18.938 40.744 18.454C40.348 17.9553 39.6733 17.706 38.72 17.706H37.576V23.712H38.83ZM50.2401 26.198C48.8761 26.198 47.8568 25.824 47.1821 25.076C46.5074 24.3133 46.1701 23.2133 46.1701 21.776V17.508C46.1701 16.0707 46.5074 14.978 47.1821 14.23C47.8568 13.4673 48.8761 13.086 50.2401 13.086C51.6041 13.086 52.6234 13.4673 53.2981 14.23C53.9874 14.978 54.3321 16.0707 54.3321 17.508V21.776C54.3321 23.2133 53.9874 24.3133 53.2981 25.076C52.6234 25.824 51.6041 26.198 50.2401 26.198ZM50.2621 24.13C50.7168 24.13 51.0174 23.954 51.1641 23.602C51.3108 23.2353 51.3841 22.7 51.3841 21.996V17.31C51.3841 16.606 51.3108 16.0707 51.1641 15.704C51.0174 15.3373 50.7168 15.154 50.2621 15.154C49.7928 15.154 49.4848 15.3373 49.3381 15.704C49.1914 16.0707 49.1181 16.606 49.1181 17.31V21.996C49.1181 22.7 49.1914 23.2353 49.3381 23.602C49.4848 23.954 49.7928 24.13 50.2621 24.13ZM60.2518 26.198C58.8878 26.198 57.8685 25.824 57.1938 25.076C56.5191 24.3133 56.1818 23.2133 56.1818 21.776V17.508C56.1818 16.0707 56.5191 14.978 57.1938 14.23C57.8685 13.4673 58.8878 13.086 60.2518 13.086C61.6158 13.086 62.6351 13.4673 63.3098 14.23C63.9991 14.978 64.3438 16.0707 64.3438 17.508V21.776C64.3438 23.2133 63.9991 24.3133 63.3098 25.076C62.6351 25.824 61.6158 26.198 60.2518 26.198ZM60.2738 24.13C60.7285 24.13 61.0291 23.954 61.1758 23.602C61.3225 23.2353 61.3958 22.7 61.3958 21.996V17.31C61.3958 16.606 61.3225 16.0707 61.1758 15.704C61.0291 15.3373 60.7285 15.154 60.2738 15.154C59.8045 15.154 59.4965 15.3373 59.3498 15.704C59.2031 16.0707 59.1298 16.606 59.1298 17.31V21.996C59.1298 22.7 59.2031 23.2353 59.3498 23.602C59.4965 23.954 59.8045 24.13 60.2738 24.13ZM66.4575 8.158H69.4275V18.41L72.6835 13.284H75.9615L72.7715 18.388L75.8955 26H72.7495L70.4395 19.73L69.4275 21.138V25.978H66.4575V8.158ZM76.5182 13.284H79.0042L80.1262 21.556L81.4682 13.284H83.6682L84.9222 21.6L86.1102 13.284H88.4862L86.4842 26H83.9542L82.5462 17.97L81.0722 26H78.4762L76.5182 13.284ZM94.0253 26.198C92.6613 26.198 91.6419 25.824 90.9673 25.076C90.2926 24.3133 89.9553 23.2133 89.9553 21.776V17.508C89.9553 16.0707 90.2926 14.978 90.9673 14.23C91.6419 13.4673 92.6613 13.086 94.0253 13.086C95.3893 13.086 96.4086 13.4673 97.0833 14.23C97.7726 14.978 98.1173 16.0707 98.1173 17.508V21.776C98.1173 23.2133 97.7726 24.3133 97.0833 25.076C96.4086 25.824 95.3893 26.198 94.0253 26.198ZM94.0473 24.13C94.5019 24.13 94.8026 23.954 94.9493 23.602C95.0959 23.2353 95.1693 22.7 95.1693 21.996V17.31C95.1693 16.606 95.0959 16.0707 94.9493 15.704C94.8026 15.3373 94.5019 15.154 94.0473 15.154C93.5779 15.154 93.2699 15.3373 93.1233 15.704C92.9766 16.0707 92.9033 16.606 92.9033 17.31V21.996C92.9033 22.7 92.9766 23.2353 93.1233 23.602C93.2699 23.954 93.5779 24.13 94.0473 24.13ZM100.253 13.284H103.245V15.242C103.67 14.494 104.103 13.9587 104.543 13.636C104.983 13.2987 105.474 13.13 106.017 13.13C106.208 13.13 106.362 13.1447 106.479 13.174V16.276C106.01 16.1 105.599 16.012 105.247 16.012C104.455 16.012 103.788 16.4227 103.245 17.244V26H100.253V13.284ZM107.943 13.284H110.825V14.406C111.675 13.5113 112.673 13.064 113.817 13.064C114.33 13.064 114.77 13.196 115.137 13.46C115.503 13.7093 115.775 14.0907 115.951 14.604C116.831 13.5773 117.901 13.064 119.163 13.064C119.867 13.064 120.431 13.3207 120.857 13.834C121.297 14.3473 121.517 15.088 121.517 16.056V26H118.657V16.342C118.657 15.8727 118.576 15.5427 118.415 15.352C118.268 15.1613 118.041 15.066 117.733 15.066C117.498 15.066 117.234 15.132 116.941 15.264C116.662 15.396 116.405 15.5793 116.171 15.814V16.056V26H113.333V16.342C113.333 15.8727 113.252 15.5427 113.091 15.352C112.929 15.1613 112.695 15.066 112.387 15.066C112.152 15.066 111.895 15.132 111.617 15.264C111.338 15.396 111.074 15.5793 110.825 15.814V26H107.943V13.284Z" fill="#312E81"/>
<path d="M22.4221 12.6973H22.4324C23.3225 12.6973 24.0438 12.0649 24.0438 11.2855C24.0438 10.5056 23.3225 9.87305 22.4324 9.87305C22.4209 9.87305 22.4093 9.87305 22.3977 9.87359H7.64244C7.63086 9.87305 7.61928 9.87305 7.60769 9.87305C6.7176 9.87305 5.99634 10.5055 5.99634 11.2855C5.99634 12.0649 6.7176 12.6973 7.60769 12.6973H7.61804" fill="#F1B986"/>
<path d="M22.0513 6.18622C17.3637 5.78802 12.6761 5.78802 7.98852 6.18622C7.62479 8.73994 7.51764 11.2937 7.66709 13.8474C7.7759 15.7064 9.47365 17.1861 11.5957 17.2739C13.8785 17.3683 16.1612 17.3683 18.444 17.2739C20.5661 17.1861 22.2638 15.7064 22.3726 13.8474C22.5222 11.2937 22.415 8.73994 22.0513 6.18622Z" fill="#F1D0A5"/>
<path d="M7.98871 6.18586C10.3321 5.9867 12.6762 5.88745 15.0203 5.88745C13.8335 5.88745 12.6468 5.98795 11.4601 6.18889C11.2755 8.76725 11.2216 11.3457 11.2971 13.9234C11.3468 15.6201 12.0545 17.0036 12.9832 17.3192C12.5209 17.3081 12.058 17.2928 11.5958 17.2738C9.47409 17.1862 7.77615 15.7064 7.66709 13.8474C7.51808 11.2936 7.62504 8.73974 7.98871 6.18586Z" fill="#F1B986"/>
<path d="M18.9248 8.31008C16.2305 9.22206 12.4032 8.8199 10.4744 7.12992C10.4744 7.12992 10.0164 9.87389 7.64336 9.87389L6.60853 10.1788C3.84474 0.673128 9.73977 3.21301 9.73977 3.21301C10.2963 2.26798 11.107 1.87673 11.954 1.78236C12.0285 1.77428 12.1031 1.76825 12.1782 1.76424C12.1842 1.76424 12.1901 1.76386 12.1961 1.76342C12.7927 1.73558 13.3967 1.84167 13.9335 1.99291C14.1204 2.04576 14.2994 2.10383 14.467 2.16395C15.1414 2.40554 15.6326 2.67703 15.7357 2.73509C15.7491 2.74318 15.7559 2.7472 15.7559 2.7472C16.3626 2.0437 16.9412 1.40723 17.5774 1.40723C17.8384 1.40723 18.0188 1.49476 18.1399 1.63471C18.5989 2.16189 18.2218 3.42958 18.1914 3.52921L18.1901 3.53366C18.1905 3.53285 18.191 3.53122 18.1919 3.52921L18.1952 3.52194C18.2767 3.34205 19.1881 1.40723 20.8228 1.40723C20.9259 1.40723 21.0184 1.41569 21.1008 1.43181C22.3193 1.66775 21.3655 3.53523 21.2605 3.73287L21.2577 3.73851C21.2549 3.74334 21.2531 3.74698 21.2522 3.7486C21.3042 3.69054 23.3449 1.42052 24.2517 2.46192C24.2521 2.46274 24.2521 2.46274 24.2526 2.46312C25.1674 3.51955 21.6177 7.39848 18.9248 8.31008Z" fill="#F4DD45"/>
<path d="M24.2514 2.46183H24.2509C23.7924 2.06048 22.2043 3.95499 21.2505 3.7497L21.2574 3.73841C21.2546 3.74324 21.2528 3.74688 21.2519 3.74851C21.3038 3.69039 23.3445 1.42037 24.2514 2.46183Z" fill="#111827"/>
<path d="M21.1005 1.43162C20.4117 1.29455 19.7733 2.44328 19.4126 3.25878C19.2381 3.65313 18.6977 3.81142 18.2875 3.58855L18.189 3.53504L18.1899 3.53342L18.1913 3.52897H18.1917L18.1949 3.52169C18.2764 3.34181 19.1879 1.40698 20.8225 1.40698C20.9256 1.40704 21.0181 1.4155 21.1005 1.43162Z" fill="#111827"/>
<path d="M11.9532 1.7821C9.98209 2.08664 9.23723 6.04626 10.4737 7.12961C10.4737 7.12961 10.0157 9.87358 7.64266 9.87358L6.60783 10.1785C3.84397 0.672871 9.739 3.21275 9.739 3.21275C10.2956 2.26772 11.1062 1.87647 11.9532 1.7821Z" fill="#111827"/>
<path d="M18.1394 1.63458C17.4466 1.02757 16.9849 4.14055 15.4253 4.63908C13.8657 5.13762 13.7197 4.50033 13.7197 4.50033V4.49995C14.4876 4.25109 15.1357 3.46457 15.7549 2.74659C15.7553 2.74696 15.7553 2.74697 15.7553 2.74697C15.7742 2.72477 15.793 2.70301 15.8119 2.6812C15.8354 2.65336 15.8598 2.62552 15.8838 2.59812C16.4444 1.95648 16.9858 1.4071 17.5769 1.4071C17.8379 1.4071 18.0183 1.49463 18.1394 1.63458Z" fill="#111827"/>
<path d="M12.1974 1.76358C12.1907 1.76358 12.184 1.76358 12.1772 1.76403C12.1835 1.76403 12.1897 1.76358 12.196 1.76318L12.1974 1.76358Z" fill="#111827"/>
<path d="M26.801 16.2187V25.3917C26.801 25.9789 26.3335 26.4868 25.6788 26.611L16.3797 28.3768H15.1794V16.6512H16.3797L25.0756 14.9999C25.9625 14.8312 26.801 15.4238 26.801 16.2187Z" fill="#A7A2BC"/>
<path d="M15.1793 16.6512V28.3768H13.8899L4.59072 26.611C3.9361 26.4868 3.46851 25.9789 3.46851 25.3917V16.2187C3.46851 15.4238 4.30707 14.8312 5.19394 14.9999L13.8899 16.6512H15.1793Z" fill="#312E81"/>
<path d="M13.8899 28.3767V16.651H16.3793V28.3767" fill="#4B5160"/>
<path d="M3.2133 20.6508H2.72626C2.0071 20.6508 1.42407 20.1399 1.42407 19.5098V18.4856C1.42407 17.8555 2.0071 17.3446 2.72626 17.3446H3.2133C3.93246 17.3446 4.51549 17.8555 4.51549 18.4856V19.5098C4.51549 20.14 3.93252 20.6508 3.2133 20.6508Z" fill="#F1D0A5"/>
<path d="M3.46448 20.6293C3.38397 20.6439 3.29974 20.651 3.21428 20.651H2.72687C2.00783 20.651 1.42505 20.1398 1.42505 19.5098V18.4858C1.42505 17.8552 2.00783 17.3446 2.72687 17.3446H3.21428C3.29974 17.3446 3.38397 17.3517 3.46448 17.3663C2.8656 17.4683 2.41349 17.9307 2.41349 18.4858V19.5098C2.41349 20.0649 2.8656 20.5273 3.46448 20.6293Z" fill="#F1B986"/>
<path d="M27.5431 20.6508H27.0561C26.3369 20.6508 25.7539 20.1399 25.7539 19.5098V18.4856C25.7539 17.8555 26.3369 17.3446 27.0561 17.3446H27.5431C28.2623 17.3446 28.8453 17.8555 28.8453 18.4856V19.5098C28.8453 20.14 28.2624 20.6508 27.5431 20.6508Z" fill="#F1D0A5"/>
<path d="M27.7943 20.6293C27.7138 20.6439 27.6296 20.651 27.5441 20.651H27.0567C26.3377 20.651 25.7549 20.1398 25.7549 19.5098V18.4858C25.7549 17.8552 26.3377 17.3446 27.0567 17.3446H27.5441C27.6296 17.3446 27.7138 17.3517 27.7943 17.3663C27.1954 17.4683 26.7433 17.9307 26.7433 18.4858V19.5098C26.7433 20.0649 27.1954 20.5273 27.7943 20.6293Z" fill="#F1B986"/>
<path d="M16.9472 14.1547C17.0572 13.9516 16.9585 13.7089 16.7267 13.6125C16.4949 13.5161 16.218 13.6026 16.108 13.8057C15.9095 14.172 15.4824 14.4087 15.0199 14.4087C14.5573 14.4087 14.1302 14.172 13.9318 13.8057C13.8219 13.6026 13.5448 13.5161 13.3131 13.6125C13.0813 13.7089 12.9826 13.9516 13.0925 14.1547C13.4439 14.8035 14.2004 15.2227 15.0199 15.2227C15.8393 15.2227 16.5958 14.8034 16.9472 14.1547Z" fill="black"/>
<path d="M11.5891 12.4787C11.9597 12.4787 12.26 12.0869 12.26 11.6037C12.26 11.1204 11.9597 10.7286 11.5891 10.7286C11.2186 10.7286 10.9182 11.1204 10.9182 11.6037C10.9182 12.0869 11.2186 12.4787 11.5891 12.4787Z" fill="black"/>
<path d="M18.4509 12.4787C18.8215 12.4787 19.1219 12.0869 19.1219 11.6037C19.1219 11.1204 18.8215 10.7286 18.4509 10.7286C18.0804 10.7286 17.78 11.1204 17.78 11.6037C17.78 12.0869 18.0804 12.4787 18.4509 12.4787Z" fill="black"/>
<path d="M25.1169 18.2831C25.0626 18.0635 24.8155 17.924 24.5646 17.9716L19.4211 18.9484C19.1704 18.996 19.0112 19.2126 19.0656 19.4323C19.1127 19.6229 19.3052 19.7532 19.519 19.7532C19.5516 19.7532 19.5847 19.7501 19.6179 19.7438L24.7614 18.7671C25.0121 18.7195 25.1712 18.5028 25.1169 18.2831Z" fill="black"/>
<path d="M24.5644 19.4839L19.4209 20.4607C19.1702 20.5083 19.011 20.725 19.0653 20.9446C19.1124 21.1352 19.3049 21.2655 19.5188 21.2655C19.5514 21.2655 19.5845 21.2624 19.6176 21.2562L24.7611 20.2794C25.0118 20.2318 25.171 20.0151 25.1167 19.7954C25.0624 19.5758 24.8153 19.4364 24.5644 19.4839Z" fill="black"/>
<path d="M27.5435 16.9377H27.2654V16.2187C27.2654 15.7159 27.0091 15.2466 26.5622 14.9309C26.1154 14.6153 25.5377 14.4955 24.9772 14.6022L22.556 15.0619C22.7172 14.6805 22.8131 14.2779 22.8373 13.8681C22.8529 13.5999 22.8651 13.3313 22.8752 13.0624C23.8077 12.8841 24.5084 12.1554 24.5084 11.2856C24.5084 10.4056 23.7919 9.66972 22.8434 9.5021C22.7874 8.48256 22.691 7.46412 22.5549 6.45126C23.6417 5.43514 24.4961 4.30323 24.7643 3.47085C24.9345 2.94275 24.8861 2.52018 24.6203 2.215C24.3751 1.93336 24.0407 1.78359 23.6534 1.78191C23.21 1.7805 22.7255 1.96684 22.1736 2.3512C22.1945 2.00244 22.1247 1.71445 21.9642 1.49083C21.8036 1.26688 21.4751 1 20.8221 1C19.9536 1 19.2713 1.42707 18.7728 1.9205C18.7241 1.72363 18.6412 1.53988 18.5098 1.38859C18.2892 1.13441 17.9665 1 17.5767 1C16.8239 1 16.2301 1.54705 15.6392 2.21028C15.3916 2.08791 15.0483 1.93244 14.6418 1.78652C14.4574 1.7207 14.2674 1.65981 14.0751 1.60495C13.3926 1.41317 12.7521 1.32961 12.1716 1.35652C12.1674 1.35668 12.1617 1.35706 12.1563 1.3575C12.1547 1.35755 12.1532 1.35761 12.1516 1.35772C12.0657 1.362 11.9823 1.36868 11.8953 1.37823C10.8945 1.48974 10.1042 1.93407 9.5407 2.70067C8.53275 2.3913 6.90628 2.27984 6.01997 3.53863C5.88527 3.72992 5.95302 3.98068 6.17139 4.0987C6.24745 4.13978 6.33161 4.15937 6.41485 4.15937C6.57067 4.15937 6.72284 4.09073 6.8106 3.96602C7.63901 2.7895 9.45821 3.54585 9.5342 3.57814C9.7613 3.67603 10.036 3.59664 10.152 3.3996C10.5789 2.67473 11.1875 2.27762 12.0115 2.1858C12.0749 2.17886 12.1364 2.17392 12.1995 2.17066C12.2091 2.17034 12.219 2.16974 12.2289 2.16903C12.6945 2.14847 13.22 2.21955 13.7894 2.37953C13.9586 2.42777 14.1274 2.48187 14.2904 2.5401C14.5961 2.64982 14.8637 2.76676 15.0706 2.86509C14.5832 3.4237 14.0809 3.94969 13.5582 4.11883C13.3175 4.1967 13.1945 4.43075 13.2833 4.64162C13.3723 4.8525 13.6394 4.96027 13.88 4.88245C14.7379 4.60483 15.3965 3.83953 16.0335 3.09946C16.5521 2.49685 17.1398 1.81398 17.5767 1.81398C17.7013 1.81398 17.7419 1.84865 17.7702 1.88116C17.9991 2.14434 17.8883 2.95886 17.7415 3.42609C17.6751 3.63577 17.8087 3.85407 18.0447 3.92169C18.2808 3.98941 18.5357 3.88235 18.6235 3.67885C18.6316 3.66019 19.4664 1.81398 20.8221 1.81398C21.0987 1.81398 21.1582 1.89668 21.1777 1.92381C21.393 2.2233 21.0986 3.08514 20.8321 3.57304C20.7292 3.76047 20.8042 3.98572 21.0059 4.09534C21.2076 4.20495 21.4714 4.1636 21.6171 3.99951C21.6204 3.99582 21.9479 3.62882 22.3906 3.26394C23.1209 2.66187 23.5115 2.59583 23.647 2.59583H23.6488C23.73 2.59621 23.8006 2.61553 23.8817 2.70865C23.9561 2.79417 23.9519 2.99636 23.8702 3.24962C23.4143 4.66452 20.8025 7.23745 18.7564 7.93015C16.0868 8.83393 12.5186 8.3456 10.8022 6.8417C10.678 6.73284 10.4943 6.69475 10.3276 6.74315C10.1609 6.79161 10.0396 6.91826 10.0142 7.07059C10.0131 7.07677 9.90685 7.69502 9.5368 8.31234C9.07776 9.07829 8.44035 9.46666 7.64235 9.46666L7.64062 9.46672C7.62959 9.4665 7.61863 9.46612 7.60761 9.46612C7.36545 9.46612 7.13302 9.50302 6.91669 9.57015C6.43999 7.8049 6.25457 6.37838 6.36729 5.32661C6.39125 5.10282 6.20366 4.90438 5.94825 4.88338C5.6929 4.86243 5.46636 5.02674 5.44239 5.25053C5.31413 6.44762 5.53324 8.06027 6.09187 10.0443C5.7448 10.3696 5.53176 10.8061 5.53176 11.2856C5.53176 12.1556 6.23265 12.8844 7.16553 13.0625C7.17563 13.3316 7.18783 13.6004 7.20356 13.868C7.22635 14.2604 7.31516 14.6471 7.46448 15.0146L5.29245 14.6022C4.73184 14.4955 4.15401 14.6153 3.70711 14.9309C3.2602 15.2466 3.00393 15.7159 3.00393 16.2187V16.9377H2.72591C1.75178 16.9377 0.959229 17.6322 0.959229 18.4857V19.5098C0.959229 20.3634 1.75178 21.0578 2.72591 21.0578H3.00393V25.3916C3.00393 26.1649 3.62988 26.845 4.49228 27.0087L13.7914 28.7745L13.793 28.7747C13.8059 28.7771 13.819 28.7789 13.8322 28.7803C13.8352 28.7806 13.8381 28.7812 13.841 28.7815C13.8564 28.7829 13.872 28.7836 13.8878 28.7836L13.8898 28.7837H16.3795L16.3816 28.7836C16.3974 28.7836 16.413 28.7829 16.4283 28.7815C16.4313 28.7812 16.4342 28.7806 16.4372 28.7803C16.4504 28.7789 16.4634 28.7771 16.4763 28.7747L16.4779 28.7745L25.777 27.0087C26.6394 26.845 27.2654 26.1649 27.2654 25.3916V24.8366C27.2654 24.6118 27.0574 24.4296 26.8009 24.4296C26.5444 24.4296 26.3364 24.6118 26.3364 24.8366V25.3916C26.3364 25.7845 26.0184 26.13 25.5803 26.2132L16.844 27.8721V16.9794L25.1741 15.3976C25.4587 15.3434 25.7522 15.4043 25.9792 15.5647C26.2063 15.725 26.3365 15.9634 26.3365 16.2187V17.0726C25.7203 17.3146 25.2899 17.8568 25.2899 18.4856V19.5098C25.2899 20.1388 25.7203 20.6809 26.3365 20.9228V23.2087C26.3365 23.4334 26.5445 23.6156 26.801 23.6156C27.0575 23.6156 27.2655 23.4334 27.2655 23.2087V21.0578H27.5435C28.5176 21.0578 29.3102 20.3634 29.3102 19.5098V18.4856C29.3101 17.6321 28.5176 16.9377 27.5435 16.9377ZM23.5794 11.2855C23.5794 11.6946 23.2986 12.0467 22.8974 12.2034C22.9065 11.5897 22.901 10.9751 22.8808 10.3602C23.291 10.5135 23.5794 10.8705 23.5794 11.2855ZM6.46087 11.2855C6.46087 10.8709 6.74873 10.5143 7.15835 10.3607C7.13834 10.974 7.1337 11.5895 7.14299 12.2034C6.74167 12.0468 6.46087 11.6946 6.46087 11.2855ZM8.13143 13.8263C8.06176 12.6438 8.049 11.4431 8.0921 10.2512C9.04122 10.1251 9.81909 9.59223 10.3594 8.69078C10.5323 8.40231 10.6569 8.11486 10.7449 7.86975C11.6913 8.48788 12.9405 8.91717 14.3442 9.09809C15.9974 9.31119 17.6833 9.16609 19.0912 8.68948C19.9538 8.39748 20.8697 7.84256 21.7118 7.17684C21.9715 9.38749 22.0383 11.6204 21.9095 13.8263C21.8792 14.339 21.7089 14.8375 21.4159 15.2784L16.3298 16.2442H13.9396L8.59202 15.2288C8.31896 14.8007 8.1601 14.3195 8.13143 13.8263ZM14.3545 17.0581H15.915V27.9698H14.3545V17.0581ZM1.88834 19.5098V18.4856C1.88834 18.0809 2.26414 17.7516 2.72603 17.7516H3.21307C3.67496 17.7516 4.05077 18.0809 4.05077 18.4856V19.5098C4.05077 19.9145 3.67496 20.2438 3.21307 20.2438H2.72603C2.26414 20.2438 1.88834 19.9146 1.88834 19.5098ZM3.93303 25.3916V20.9229C4.5492 20.6809 4.97969 20.1388 4.97969 19.5099V18.4857C4.97969 17.8568 4.5492 17.3146 3.93303 17.0727V16.2187C3.93303 15.9634 4.06328 15.725 4.29032 15.5647C4.51737 15.4043 4.8108 15.3434 5.09563 15.3976L13.4255 16.9794V27.8721L4.68911 26.2132C4.251 26.13 3.93303 25.7845 3.93303 25.3916ZM28.3811 19.5098C28.3811 19.9145 28.0053 20.2438 27.5435 20.2438H27.0564C26.5945 20.2438 26.2187 19.9145 26.2187 19.5098V18.4856C26.2187 18.0809 26.5945 17.7516 27.0564 17.7516H27.5435C28.0053 17.7516 28.3811 18.0809 28.3811 18.4856V19.5098Z" fill="black"/>
</svg>
